<svg width="92" height="92" viewBox="0 0 92 92" fill="none" xmlns="http://www.w3.org/2000/svg">
<g clip-path="url(#clip0_97_283)">
<path d="M58.4054 20.6905H33.6154C33.0505 20.6912 32.5089 20.9214 32.1094 21.3306C31.71 21.7399 31.4852 22.2947 31.4845 22.8734V79.3171L31.2004 79.4059L25.119 81.3138C24.8308 81.4038 24.5195 81.373 24.2535 81.2281C23.9874 81.0832 23.7883 80.8361 23.7 80.541L5.61062 20.008C5.52259 19.7127 5.5526 19.3937 5.69404 19.1211C5.83549 18.8485 6.0768 18.6445 6.36494 18.5541L15.7363 15.6144L42.9044 7.09511L52.2757 4.15541C52.4183 4.11045 52.5682 4.09473 52.7167 4.10917C52.8653 4.12361 53.0096 4.16792 53.1414 4.23956C53.2732 4.3112 53.39 4.40877 53.4849 4.52668C53.5799 4.64459 53.6512 4.78053 53.6949 4.92672L58.3187 20.3994L58.4054 20.6905Z" fill="#F2F2F2"/>
<path d="M63.8145 20.3993L58.2417 1.75113C58.149 1.44042 57.9974 1.15147 57.7956 0.900788C57.5939 0.65011 57.3459 0.442619 57.0658 0.290171C56.7857 0.137722 56.4791 0.0433033 56.1634 0.012313C55.8477 -0.0186774 55.5291 0.0143681 55.2259 0.109558L42.0503 4.24114L14.8837 12.7619L1.70808 16.8949C1.09601 17.0875 0.583517 17.521 0.28309 18.1002C-0.0173363 18.6794 -0.0811511 19.3571 0.105656 19.9845L19.1524 83.7163C19.3042 84.2228 19.6104 84.6661 20.0261 84.9811C20.4418 85.2962 20.9451 85.4665 21.4623 85.467C21.7016 85.4672 21.9396 85.4304 22.1682 85.3579L31.2001 82.5259L31.4842 82.4357V82.1315L31.2001 82.2203L22.0844 85.0799C21.5442 85.2486 20.9607 85.191 20.4619 84.9195C19.9631 84.648 19.5897 84.185 19.4238 83.6319L0.37846 19.8987C0.296223 19.6246 0.267561 19.3367 0.294115 19.0512C0.320668 18.7658 0.401914 18.4886 0.533204 18.2354C0.664494 17.9822 0.84325 17.758 1.05923 17.5757C1.27521 17.3934 1.52417 17.2565 1.79187 17.1729L14.9675 13.0399L42.1341 4.52056L55.3097 0.387522C55.5128 0.324042 55.7238 0.291675 55.9361 0.291472C56.3917 0.29252 56.835 0.442991 57.2011 0.720846C57.5672 0.998701 57.8368 1.38934 57.9704 1.83554L63.5176 20.3993L63.6057 20.6904H63.9012L63.8145 20.3993Z" fill="#3F3D56"/>
<path d="M17.4274 18.6017C17.1536 18.6015 16.8871 18.5114 16.6669 18.3447C16.4468 18.1779 16.2846 17.9433 16.2041 17.6752L14.3744 11.5525C14.3252 11.388 14.3082 11.2152 14.3242 11.044C14.3402 10.8728 14.389 10.7065 14.4678 10.5546C14.5465 10.4027 14.6537 10.2682 14.7833 10.1587C14.9128 10.0493 15.0621 9.96703 15.2226 9.9167L40.2157 2.07793C40.5399 1.97657 40.8901 2.01114 41.1895 2.17404C41.4889 2.33695 41.7129 2.61488 41.8125 2.94684L43.6422 9.0696C43.7411 9.40175 43.7073 9.76053 43.5483 10.0672C43.3893 10.3739 43.118 10.6034 42.794 10.7055L17.8009 18.5442C17.6799 18.5823 17.554 18.6017 17.4274 18.6017Z" fill="#2563EB"/>
<path d="M27.0125 6.54222C28.5816 6.54222 29.8536 5.23911 29.8536 3.63163C29.8536 2.02416 28.5816 0.721039 27.0125 0.721039C25.4434 0.721039 24.1714 2.02416 24.1714 3.63163C24.1714 5.23911 25.4434 6.54222 27.0125 6.54222Z" fill="#2563EB"/>
<path d="M27.0125 5.47473C28.0061 5.47473 28.8115 4.64955 28.8115 3.63165C28.8115 2.61375 28.0061 1.78857 27.0125 1.78857C26.0189 1.78857 25.2134 2.61375 25.2134 3.63165C25.2134 4.64955 26.0189 5.47473 27.0125 5.47473Z" fill="white"/>
<path d="M85.6073 84.7235H37.5927C37.2726 84.7231 36.9657 84.5927 36.7393 84.3608C36.513 84.1289 36.3856 83.8145 36.3853 83.4865V24.547C36.3856 24.2191 36.5129 23.9046 36.7393 23.6727C36.9657 23.4408 37.2726 23.3104 37.5927 23.31H85.6073C85.9275 23.3104 86.2344 23.4409 86.4607 23.6728C86.6871 23.9047 86.8144 24.2191 86.8148 24.547V83.4865C86.8144 83.8145 86.6871 84.1289 86.4607 84.3608C86.2344 84.5927 85.9275 84.7231 85.6073 84.7235Z" fill="#E6E6E6"/>
<path d="M63.5177 20.3994H33.6151C32.9749 20.4004 32.3612 20.6613 31.9085 21.1251C31.4558 21.5889 31.2011 22.2176 31.2002 22.8734V82.2204L31.4843 82.1316V22.8734C31.485 22.2947 31.7097 21.7399 32.1092 21.3307C32.5086 20.9214 33.0502 20.6912 33.6151 20.6905H63.6058L63.5177 20.3994ZM89.5848 20.3994H33.6151C32.9749 20.4004 32.3612 20.6613 31.9085 21.1251C31.4558 21.5889 31.2011 22.2176 31.2002 22.8734V89.526C31.2011 90.1819 31.4558 90.8106 31.9085 91.2744C32.3612 91.7381 32.9749 91.9991 33.6151 92H89.5848C90.225 91.9991 90.8387 91.7381 91.2914 91.2744C91.7441 90.8106 91.9989 90.1819 91.9998 89.526V22.8734C91.9989 22.2176 91.7441 21.5889 91.2914 21.1251C90.8387 20.6613 90.225 20.4004 89.5848 20.3994ZM91.7156 89.526C91.715 90.1047 91.4902 90.6596 91.0908 91.0688C90.6913 91.478 90.1497 91.7082 89.5848 91.7089H33.6151C33.0502 91.7082 32.5086 91.478 32.1092 91.0688C31.7097 90.6596 31.485 90.1047 31.4843 89.526V22.8734C31.485 22.2947 31.7097 21.7399 32.1092 21.3307C32.5086 20.9214 33.0502 20.6912 33.6151 20.6905H89.5848C90.1497 20.6912 90.6913 20.9214 91.0908 21.3307C91.4902 21.7399 91.715 22.2947 91.7156 22.8734V89.526Z" fill="#3F3D56"/>
<path d="M74.6696 26.8027H48.5314C48.1925 26.8024 47.8675 26.6642 47.6278 26.4187C47.3881 26.1731 47.2533 25.8402 47.2529 25.493V19.0897C47.2533 18.7424 47.3881 18.4095 47.6278 18.164C47.8675 17.9184 48.1925 17.7803 48.5314 17.7799H74.6696C75.0085 17.7803 75.3335 17.9184 75.5732 18.164C75.8128 18.4095 75.9477 18.7424 75.948 19.0897V25.493C75.9477 25.8402 75.8129 26.1731 75.5732 26.4187C75.3335 26.6642 75.0085 26.8024 74.6696 26.8027Z" fill="#2563EB"/>
<path d="M61.6004 18.2165C63.1695 18.2165 64.4415 16.9134 64.4415 15.3059C64.4415 13.6984 63.1695 12.3953 61.6004 12.3953C60.0313 12.3953 58.7593 13.6984 58.7593 15.3059C58.7593 16.9134 60.0313 18.2165 61.6004 18.2165Z" fill="#2563EB"/>
<path d="M61.6001 17.0787C62.5559 17.0787 63.3306 16.285 63.3306 15.3059C63.3306 14.3268 62.5559 13.5331 61.6001 13.5331C60.6444 13.5331 59.8696 14.3268 59.8696 15.3059C59.8696 16.285 60.6444 17.0787 61.6001 17.0787Z" fill="white"/>
</g>
<defs>
<clipPath id="clip0_97_283">
<rect width="92" height="92" fill="white"/>
</clipPath>
</defs>
</svg>
