<svg width="359" height="220" viewBox="0 0 359 220" fill="none" xmlns="http://www.w3.org/2000/svg">
<g clip-path="url(#clip0_2_32)">
<path d="M358.237 160.363C356.357 174.312 350.531 187.852 340.916 196.42C331.453 204.859 319.33 207.857 307.626 210.434C293.59 213.529 279.515 216.358 265.401 218.922C263.4 219.294 261.398 219.653 259.395 220H177.19C177.106 219.871 177.019 219.736 176.936 219.601C176.802 219.375 176.668 219.148 176.538 218.922C176.464 218.792 176.39 218.657 176.316 218.523H227.879C229.342 218.521 230.745 217.842 231.78 216.635C232.815 215.429 233.398 213.792 233.401 212.084V131.762C233.733 130.544 234.043 129.32 234.325 128.08C235.64 122.305 236.495 116.4 236.88 110.442C237.157 106.29 237.24 102.138 237.18 97.9804C237.009 86.5544 235.729 75.1284 234.338 63.7833C234.237 62.9475 234.131 62.1063 234.029 61.2705C233.049 53.3871 232.158 44.8082 235.563 37.9008C239.458 29.9959 248.102 26.7013 255.888 27.5101C269.892 28.9714 281.688 41.4866 287.819 56.2558C293.945 71.0196 295.318 87.8108 295.877 104.203C296.172 112.895 296.14 121.976 295.101 130.695C298.612 121.323 302.126 111.952 305.644 102.58C307.52 97.5814 309.493 92.4211 312.967 88.7652C320.23 81.1137 332.243 82.6559 340.001 89.6226C347.754 96.5947 352.004 107.611 354.832 118.541C358.334 132.059 360.122 146.413 358.237 160.363Z" fill="#353535"/>
<path d="M327.257 84.5957C332.336 95.0934 334.666 107.131 334.61 119.143C334.532 131.053 332.274 142.806 327.989 153.615C324.113 163.375 318.712 172.207 312.064 179.659C305.503 187.093 297.717 192.898 289.179 196.72C279.271 201.053 268.555 202.242 258.125 200.163C256.676 199.873 255.238 199.521 253.81 199.107C252.944 198.858 252.575 200.417 253.442 200.666C264.295 203.806 275.677 203.424 286.358 199.562C295.254 196.222 303.462 190.772 310.468 183.554C317.561 176.317 323.427 167.59 327.76 157.827C332.502 147.138 335.268 135.406 335.881 123.391C336.486 111.198 334.734 98.7883 330.216 87.7281C329.669 86.3878 329.081 85.0716 328.454 83.7793C328.358 83.6019 328.207 83.4749 328.032 83.4252C327.857 83.3754 327.673 83.4068 327.518 83.5127C327.362 83.6186 327.248 83.7908 327.2 83.9928C327.151 84.1949 327.172 84.411 327.257 84.5957Z" fill="white"/>
<path d="M253.697 27.2961C259.328 39.4108 263.717 52.2578 266.772 65.5712C272.887 92.2361 273.807 120.161 269.466 147.295C267.299 160.852 263.765 174.062 258.937 186.65C254.123 199.131 247.192 212.282 235.354 216.652C234.018 217.143 232.648 217.5 231.26 217.72C230.381 217.861 230.755 219.42 231.629 219.28C243.875 217.318 252.384 205.445 257.721 193.342C263.243 180.818 267.175 167.219 269.789 153.489C274.971 126.092 274.785 97.6839 269.244 70.3835C266.492 56.7833 262.377 43.6083 256.987 31.1302C256.31 29.5675 255.612 28.0174 254.894 26.4797C254.468 25.5649 253.27 26.3805 253.697 27.2961Z" fill="white"/>
<path d="M195.736 24.9434H112.755C111.07 24.9459 109.456 25.7279 108.265 27.1178C107.074 28.5077 106.404 30.392 106.402 32.3576V80.8818H119.172C120.106 80.8789 121.026 81.1542 121.843 81.6816C122.66 82.2091 123.349 82.9713 123.843 83.8961L128.27 92.1191L132.502 99.9755L133.297 101.453L138.139 110.442L138.194 110.544H202.089V32.3576C202.087 30.392 201.416 28.5077 200.226 27.1178C199.035 25.7279 197.42 24.9459 195.736 24.9434Z" fill="#353535"/>
<path d="M162.844 39.7773H121.727C120.637 39.7773 119.592 40.2826 118.821 41.1821C118.05 42.0816 117.617 43.3015 117.617 44.5736C117.617 45.8457 118.05 47.0657 118.821 47.9652C119.592 48.8646 120.637 49.37 121.727 49.37H162.844C163.934 49.37 164.979 48.8646 165.75 47.9652C166.52 47.0657 166.953 45.8457 166.953 44.5736C166.953 43.3015 166.52 42.0816 165.75 41.1821C164.979 40.2826 163.934 39.7773 162.844 39.7773Z" fill="white"/>
<path d="M185.645 63.3303H122.101C120.912 63.3303 119.77 63.8819 118.929 64.8638C118.088 65.8457 117.615 67.1775 117.615 68.5661C117.615 69.9547 118.088 71.2865 118.929 72.2684C119.77 73.2503 120.912 73.8019 122.101 73.8019H185.645C186.835 73.8019 187.976 73.2503 188.817 72.2684C189.658 71.2865 190.131 69.9547 190.131 68.5661C190.131 67.1775 189.658 65.8457 188.817 64.8638C187.976 63.8819 186.835 63.3303 185.645 63.3303Z" fill="white"/>
<path d="M189.702 84.6671C189.34 83.767 188.767 83.0054 188.049 82.4716C187.33 81.9378 186.496 81.6538 185.645 81.6529H122.101C122.004 81.6529 121.912 81.6583 121.815 81.6637C122.644 82.1923 123.343 82.9611 123.843 83.8961L128.27 92.1191H185.645C186.399 92.1194 187.142 91.8972 187.803 91.4733C188.464 91.0494 189.023 90.4374 189.428 89.6942C189.832 88.9509 190.07 88.1005 190.118 87.2217C190.165 86.3429 190.022 85.4642 189.702 84.6671Z" fill="white"/>
<path d="M190.085 104.505C189.939 103.251 189.409 102.102 188.592 101.269C187.776 100.436 186.729 99.9769 185.645 99.9755H132.502L133.297 101.453L138.139 110.442H185.645C186.578 110.444 187.489 110.102 188.246 109.466C188.828 108.982 189.302 108.343 189.629 107.602C189.956 106.861 190.127 106.039 190.127 105.206C190.127 104.971 190.113 104.737 190.085 104.505Z" fill="white"/>
<path d="M240.807 66.7328L234.338 63.7832L202.089 49.0949L163.504 31.5218C161.934 30.8105 160.186 30.855 158.643 31.6454C157.101 32.4358 155.889 33.9077 155.275 35.7385L153.926 39.7773L150.715 49.3699L146.049 63.3303L142.546 73.8019L139.922 81.6529L136.42 92.1191L133.791 99.9755L133.717 100.202L133.297 101.453L138.139 110.442L138.194 110.544H227.879C228.703 110.543 229.516 110.758 230.258 111.172C231.001 111.587 231.655 112.19 232.172 112.938L232.55 111.817L237.18 97.9804L244.415 76.3416C245.026 74.5087 244.989 72.468 244.313 70.6667C243.637 68.8655 242.376 67.4508 240.807 66.7328Z" fill="#2563EB"/>
<path d="M205.545 66.5925L202.089 65.018L167.242 49.1488C166.226 48.6899 165.096 48.7187 164.098 49.2288C163.1 49.739 162.315 50.6891 161.915 51.8719C161.521 53.0584 161.546 54.3786 161.984 55.5437C162.422 56.7089 163.238 57.624 164.253 58.0891L175.762 63.3303L189.997 69.8117L202.089 75.3225L202.555 75.5328C203.571 75.9928 204.701 75.9639 205.698 75.4523C206.695 74.9407 207.478 73.9883 207.874 72.804C208.27 71.6198 208.247 70.3007 207.81 69.1361C207.373 67.9715 206.559 67.0567 205.545 66.5925Z" fill="white"/>
<path d="M219.443 98.2123L202.089 90.3074L189.702 84.6671L183.085 81.6529L165.851 73.8019L160.251 71.2514C159.207 70.7754 158.047 70.7732 157.001 71.2453C155.956 71.7174 155.099 72.6295 154.601 73.8019C154.545 73.9367 154.49 74.0769 154.444 74.2225C154.23 74.8626 154.125 75.5458 154.137 76.2328C154.149 76.9199 154.277 77.5975 154.514 78.2269C154.75 78.8563 155.09 79.4252 155.515 79.9011C155.94 80.377 156.441 80.7506 156.99 81.0005L158.422 81.6529L181.394 92.1191L202.089 101.545L216.181 107.967C216.699 108.203 217.251 108.324 217.807 108.323C218.853 108.325 219.867 107.9 220.674 107.121C221.48 106.343 222.027 105.26 222.222 104.06C222.416 102.86 222.244 101.619 221.737 100.551C221.229 99.4827 220.418 98.6555 219.443 98.2123Z" fill="white"/>
<path d="M202.089 109.973L200.975 109.466L190.085 104.505L180.137 99.9755L162.885 92.1192L154.541 88.3177C153.992 88.067 153.406 87.9451 152.816 87.9589C152.227 87.9728 151.646 88.1221 151.106 88.3983C150.566 88.6745 150.078 89.0722 149.67 89.5687C149.262 90.0652 148.942 90.6507 148.728 91.2917C148.514 91.9327 148.41 92.6167 148.422 93.3045C148.435 93.9924 148.564 94.6706 148.801 95.3003C149.039 95.93 149.38 96.499 149.806 96.9746C150.232 97.4502 150.734 97.8232 151.284 98.0721L155.46 99.9756L176.298 109.466L178.442 110.442L178.664 110.544H203.341L202.089 109.973Z" fill="white"/>
<path d="M159.937 110.442L157.794 109.466L148.835 105.384C148.209 105.098 147.536 104.98 146.865 105.039C146.195 105.097 145.545 105.331 144.963 105.723C144.38 106.115 143.881 106.655 143.502 107.303C143.123 107.951 142.874 108.69 142.773 109.466C142.728 109.788 142.711 110.115 142.722 110.442C142.721 110.476 142.723 110.51 142.727 110.544H160.164L159.937 110.442Z" fill="white"/>
<path d="M178.442 110.442L176.298 109.466H142.773C142.728 109.788 142.711 110.115 142.722 110.442H138.139L138.194 110.544H178.664L178.442 110.442ZM178.442 110.442H138.139L138.194 110.544H178.664L178.442 110.442ZM178.442 110.442H138.139L138.194 110.544H178.664L178.442 110.442ZM178.664 110.544L178.442 110.442H138.139L138.194 110.544H178.664ZM97.8033 218.523C96.3408 218.52 94.939 217.841 93.9049 216.634C92.8708 215.427 92.2888 213.791 92.2866 212.084V87.3255C92.2879 85.6179 92.8694 83.9806 93.9035 82.7727C94.9377 81.5647 96.3401 80.8848 97.8033 80.8818H106.402V79.8034H97.8033C96.0953 79.8071 94.4582 80.601 93.2509 82.011C92.0436 83.4211 91.3645 85.3322 91.3625 87.3255V212.084C91.364 213.526 91.7206 214.937 92.3898 216.15C93.0591 217.362 94.0128 218.324 95.1373 218.922H176.538C176.464 218.792 176.39 218.657 176.316 218.523H97.8033ZM232.55 111.817C231.95 111.074 231.227 110.482 230.423 110.078C229.62 109.673 228.754 109.465 227.879 109.466H138.707L133.717 100.202L133.597 99.9755L129.365 92.1192L124.624 83.3191C124.043 82.2441 123.239 81.3581 122.285 80.7434C121.332 80.1287 120.261 79.8053 119.172 79.8034H97.8033C96.0953 79.8071 94.4582 80.601 93.2509 82.011C92.0436 83.4211 91.3645 85.3322 91.3625 87.3255V212.084C91.364 213.526 91.7206 214.937 92.3898 216.15C93.0591 217.362 94.0128 218.324 95.1373 218.922C95.9733 219.371 96.8829 219.603 97.8033 219.601H227.879C228.801 219.603 229.712 219.371 230.55 218.922C231.675 218.324 232.628 217.362 233.297 216.15C233.967 214.937 234.323 213.526 234.325 212.084V116.988C234.326 115.062 233.69 113.21 232.55 111.817ZM233.401 212.084C233.398 213.792 232.816 215.429 231.78 216.635C230.745 217.842 229.342 218.521 227.879 218.523H97.8033C96.3408 218.52 94.939 217.841 93.9049 216.634C92.8708 215.427 92.2888 213.791 92.2866 212.084V87.3255C92.2879 85.6179 92.8694 83.9806 93.9035 82.7727C94.9377 81.5647 96.3401 80.8848 97.8033 80.8818H119.172C120.106 80.8789 121.026 81.1542 121.843 81.6816C122.66 82.2091 123.349 82.9713 123.843 83.8961L128.27 92.1191L132.502 99.9755L133.297 101.453L138.139 110.442L138.194 110.544L227.879 110.544C229.343 110.546 230.747 111.225 231.782 112.433C232.817 113.641 233.399 115.279 233.401 116.988V212.084ZM178.442 110.442H138.139L138.194 110.544H178.664L178.442 110.442ZM178.442 110.442H138.139L138.194 110.544H178.664L178.442 110.442ZM178.442 110.442H138.139L138.194 110.544H178.664L178.442 110.442ZM178.442 110.442L176.298 109.466H138.707L133.717 100.202L133.297 101.453L138.139 110.442L138.194 110.544H178.664L178.442 110.442Z" fill="#3F3D56"/>
<path d="M72.5059 155.171L69.8594 161.628L47.2581 152.788L51.1637 143.258L72.5059 155.171Z" fill="#FFB8B8"/>
<path d="M66.1424 165.958L71.4921 152.905L78.2108 156.655L69.8934 176.95L69.3796 176.663C67.734 175.744 66.4684 174.101 65.8613 172.093C65.2542 170.085 65.3553 167.879 66.1424 165.958Z" fill="#2F2E41"/>
<path d="M77.8336 212.837L71.7038 212.596L71.4456 184.748L78.6316 185.243L77.8336 212.837Z" fill="#FFB8B8"/>
<path d="M66.8151 210.357L79.2063 210.845L78.9551 219.532L59.6896 218.773L59.7088 218.109C59.7703 215.981 60.5536 213.969 61.8863 212.515C63.219 211.062 64.9919 210.285 66.8151 210.357Z" fill="#2F2E41"/>
<path d="M87.7051 96.2928C87.7051 96.2928 68.9443 90.7461 60.4394 98.9202L55.6866 114.976L36.6757 146.505L64.1916 165.773L69.1945 151.176L57.1875 144.17L71.6959 129.573L69.1945 206.643L78.7 208.395C78.7 208.395 99.7121 113.225 87.7051 96.2928Z" fill="#2F2E41"/>
<path d="M59.2423 101.295L59.471 100.821C61.8814 95.8196 61.4908 87.6757 60.7388 81.7247C60.1089 76.7402 60.1278 67.956 60.2546 61.4645C60.2859 59.2734 60.9555 57.16 62.1532 55.4722C63.3508 53.7844 65.0051 52.6228 66.8439 52.1785C72.5512 50.7924 79.5578 50.4988 83.2264 50.4469C84.2232 50.4423 85.1818 50.8938 85.8966 51.7045C86.6114 52.5153 87.0255 53.6207 87.0499 54.7837C87.1615 61.7741 87.1268 74.5216 85.6404 81.3609C83.4343 91.5119 86.884 98.4099 86.9192 98.4783L87.1273 98.8843L59.2423 101.295Z" fill="#F48C06"/>
<path d="M49.5918 129.29C50.2025 128.949 50.7417 128.455 51.1713 127.844C51.601 127.234 51.9106 126.52 52.0785 125.755C52.2463 124.989 52.2683 124.19 52.1429 123.413C52.0174 122.637 51.7476 121.902 51.3524 121.26L61.9403 67.9754H53.9356L44.5913 120.21C43.7116 121.056 43.1285 122.249 42.9523 123.564C42.7762 124.878 43.0194 126.223 43.6358 127.342C44.2521 128.461 45.1989 129.278 46.2966 129.637C47.3944 129.996 48.5668 129.872 49.5918 129.29Z" fill="#FFB8B8"/>
<path d="M113.97 76.8395L96.301 57.3331L91.5255 65.1357L103.464 77.3968L87.8073 91.9074C87.6942 91.8985 87.5815 91.8873 87.4664 91.8873C86.5029 91.8862 85.5595 92.2091 84.7492 92.8173C83.9388 93.4255 83.2958 94.2933 82.897 95.3169C82.4982 96.3404 82.3605 97.4764 82.5003 98.5889C82.6402 99.7014 83.0518 100.743 83.6858 101.59C84.3198 102.437 85.1494 103.052 86.0753 103.363C87.0012 103.674 87.9843 103.667 88.9069 103.343C89.8295 103.019 90.6525 102.391 91.2775 101.535C91.9025 100.68 92.303 99.632 92.4312 98.5175L92.4806 98.5752L113.97 76.8395Z" fill="#FFB8B8"/>
<path d="M65.72 52.8635C65.72 52.8635 54.6861 50.7514 53.6855 60.6771C52.6849 70.6028 52.1846 70.6028 52.1846 70.6028C52.1846 70.6028 60.1893 68.8512 62.1904 71.1866C64.1916 73.5221 65.72 52.8635 65.72 52.8635Z" fill="#F48C06"/>
<path d="M82.202 51.3352C82.202 51.3352 91.2072 49.5837 95.2095 54.2546C99.2118 58.9255 101.213 60.0932 101.213 60.0932C101.213 60.0932 92.2078 65.9319 95.7098 71.1866C95.7098 71.1866 86.2043 65.9319 84.7035 67.6835C83.2026 69.435 82.202 51.3352 82.202 51.3352Z" fill="#F48C06"/>
<path d="M74.3036 17.4374C71.463 14.7898 70.7166 9.68007 72.3647 5.89855C74.0128 2.11702 77.7389 -0.161232 81.3713 0.00890731C85.0037 0.179047 88.4264 2.61284 90.5308 6.07232C93.4868 10.932 94.1071 17.6862 98.0378 21.4907C101.588 24.927 106.674 24.8286 111.28 24.5552C112.833 24.4631 114.436 24.3562 115.829 23.5511C117.223 22.7459 118.361 21.0478 118.181 19.2455C119.339 21.3834 118.667 24.381 117.115 26.145C115.562 27.909 113.351 28.6481 111.199 28.9423C107.403 29.4081 103.567 28.7116 100.071 26.9214C96.5754 25.1313 93.5393 22.3093 91.262 18.7334C89.6593 16.153 88.4224 13.1482 86.2231 11.259C84.0238 9.36973 80.3568 9.23822 79.0067 12.0085C78.3389 13.3786 78.4044 15.0973 77.7904 16.5012C77.1763 17.9051 75.1822 18.6621 74.5909 17.2449" fill="#2F2E41"/>
<path d="M73.8694 45.5939C81.5246 45.5939 87.7303 38.3514 87.7303 29.4173C87.7303 20.4833 81.5246 13.2408 73.8694 13.2408C66.2141 13.2408 60.0084 20.4833 60.0084 29.4173C60.0084 38.3514 66.2141 45.5939 73.8694 45.5939Z" fill="#2F2E41"/>
<path d="M73.7856 46.8602C80.053 46.8602 85.1336 40.9308 85.1336 33.6165C85.1336 26.3021 80.053 20.3727 73.7856 20.3727C67.5183 20.3727 62.4376 26.3021 62.4376 33.6165C62.4376 40.9308 67.5183 46.8602 73.7856 46.8602Z" fill="#F8D6D6"/>
<path d="M63.4384 23.8897C64.9807 24.2834 64.476 27.3028 65.6947 28.4739C66.7941 29.5304 68.3772 28.4439 69.7609 28.0506C71.5077 27.5541 73.3361 28.2815 74.9489 29.2089C76.5617 30.1362 78.1168 31.2871 79.8762 31.7192C81.6356 32.1512 83.7215 31.6642 84.7078 29.9099C85.6508 28.2324 85.3037 25.9703 84.5659 24.1582C83.6486 21.9051 82.2089 19.9968 80.41 18.6495C78.6111 17.3023 76.5248 16.5699 74.3876 16.5353C72.2504 16.5007 70.1475 17.1654 68.3173 18.454C66.4871 19.7425 65.0027 21.6035 64.0322 23.8261" fill="#2F2E41"/>
</g>
<defs>
<clipPath id="clip0_2_32">
<rect width="359" height="220" fill="white"/>
</clipPath>
</defs>
</svg>
