<svg width="420" height="422" viewBox="0 0 420 422" fill="none" xmlns="http://www.w3.org/2000/svg">
<path d="M76.8507 375.232L74.3003 365.17C69.7779 363.253 65.1509 361.593 60.4415 360.197L60.1195 364.873L58.814 359.722C52.9737 358.052 49 357.318 49 357.318C49 357.318 54.3667 377.727 65.625 393.33L78.7418 395.634L68.5516 397.104C69.9677 398.808 71.4895 400.421 73.108 401.934C89.4833 417.134 107.723 424.108 113.847 417.509C119.971 410.909 111.66 393.242 95.284 378.043C90.209 373.331 83.8303 369.549 77.4463 366.572L76.8507 375.232Z" fill="#F2F2F2"/>
<path d="M101.108 364.305L104.124 354.374C101.244 350.396 98.1412 346.583 94.8312 342.954L92.1391 346.79L93.6838 341.706C89.5462 337.259 86.5245 334.577 86.5245 334.577C86.5245 334.577 80.5699 354.822 82.1402 373.998L92.1776 382.748L82.6932 378.738C83.0251 380.929 83.4944 383.097 84.0985 385.229C90.2596 406.706 102.269 422.104 110.921 419.621C119.574 417.139 121.593 397.717 115.432 376.24C113.522 369.582 110.017 363.049 106.091 357.201L101.108 364.305Z" fill="#F2F2F2"/>
<path d="M314.425 99.8066H312.117V36.5896C312.117 26.8857 308.262 17.5793 301.401 10.7175C294.539 3.85563 285.233 0.000464114 275.529 0H141.588C131.884 0 122.578 3.85496 115.716 10.7168C108.854 17.5787 104.999 26.8854 104.999 36.5896V383.41C104.999 388.215 105.945 392.973 107.784 397.412C109.623 401.851 112.318 405.885 115.716 409.283C119.113 412.68 123.147 415.375 127.586 417.214C132.025 419.053 136.783 419.999 141.588 419.999H275.529C285.233 419.999 294.54 416.144 301.401 409.283C308.263 402.421 312.118 393.114 312.118 383.41V144.806H314.426L314.425 99.8066Z" fill="#E6E6E6"/>
<path d="M277.004 9.5159H259.522C260.326 11.4872 260.633 13.6259 260.415 15.7437C260.198 17.8614 259.463 19.8933 258.276 21.6601C257.088 23.427 255.484 24.8747 253.605 25.8757C251.726 26.8767 249.63 27.4003 247.501 27.4003H170.769C168.64 27.4004 166.544 26.8768 164.665 25.8758C162.786 24.8748 161.182 23.427 159.994 21.66C158.807 19.893 158.072 17.8611 157.855 15.7432C157.638 13.6253 157.945 11.4866 158.749 9.51532H142.42C135.173 9.51532 128.223 12.3942 123.099 17.5187C117.974 22.6431 115.095 29.5933 115.095 36.8404V383.157C115.095 390.404 117.974 397.355 123.099 402.479C128.223 407.603 135.173 410.482 142.42 410.482H277.004C284.251 410.482 291.201 407.603 296.326 402.479C301.45 397.355 304.329 390.404 304.329 383.157V36.8398C304.329 29.593 301.45 22.643 296.326 17.5187C291.202 12.3944 284.251 9.51547 277.005 9.51532L277.004 9.5159Z" fill="white"/>
<path d="M192.562 147.47C192.562 145.049 193.2 142.671 194.411 140.574C195.622 138.478 197.364 136.737 199.461 135.528C197.365 134.318 194.988 133.681 192.567 133.68C190.147 133.68 187.769 134.317 185.673 135.528C183.577 136.738 181.836 138.478 180.626 140.574C179.415 142.671 178.778 145.048 178.778 147.469C178.778 149.889 179.415 152.267 180.626 154.363C181.836 156.459 183.577 158.2 185.673 159.41C187.769 160.62 190.147 161.257 192.567 161.257C194.988 161.257 197.365 160.62 199.461 159.409C197.365 158.2 195.623 156.46 194.412 154.364C193.202 152.268 192.564 149.891 192.565 147.47H192.562Z" fill="#CCCCCC"/>
<path d="M209.896 147.47C209.895 145.049 210.533 142.67 211.744 140.574C212.955 138.478 214.697 136.737 216.795 135.528C214.699 134.318 212.321 133.681 209.9 133.68C207.48 133.68 205.102 134.317 203.006 135.528C200.91 136.738 199.169 138.478 197.959 140.574C196.749 142.671 196.112 145.048 196.112 147.469C196.112 149.889 196.749 152.267 197.959 154.363C199.169 156.459 200.91 158.2 203.006 159.41C205.102 160.62 207.48 161.257 209.9 161.257C212.321 161.257 214.699 160.62 216.795 159.409C214.698 158.2 212.956 156.46 211.746 154.364C210.535 152.268 209.898 149.891 209.898 147.47H209.896Z" fill="#CCCCCC"/>
<path d="M226.836 161.258C234.451 161.258 240.625 155.085 240.625 147.47C240.625 139.855 234.451 133.682 226.836 133.682C219.221 133.682 213.048 139.855 213.048 147.47C213.048 155.085 219.221 161.258 226.836 161.258Z" fill="#F48C06"/>
<path d="M249.88 190.536H169.518C168.753 190.536 168.019 190.231 167.478 189.69C166.937 189.149 166.633 188.416 166.632 187.651V107.29C166.634 106.525 166.938 105.792 167.479 105.252C168.02 104.711 168.753 104.407 169.518 104.406H249.88C250.645 104.407 251.378 104.711 251.919 105.252C252.46 105.793 252.764 106.527 252.765 107.292V187.648C252.764 188.413 252.46 189.146 251.919 189.687C251.378 190.228 250.645 190.533 249.88 190.534V190.536ZM169.518 105.559C169.059 105.559 168.619 105.742 168.294 106.066C167.97 106.391 167.787 106.831 167.786 107.29V187.651C167.787 188.11 167.97 188.55 168.294 188.875C168.619 189.2 169.059 189.382 169.518 189.383H249.88C250.339 189.382 250.779 189.2 251.103 188.875C251.428 188.55 251.61 188.11 251.611 187.651V107.29C251.61 106.831 251.428 106.391 251.103 106.066C250.779 105.742 250.339 105.559 249.88 105.559H169.518Z" fill="#CCCCCC"/>
<path d="M267.823 252.137H144.574V253.291H267.823V252.137Z" fill="#CCCCCC"/>
<path d="M148.466 244.929C150.615 244.929 152.358 243.186 152.358 241.037C152.358 238.887 150.615 237.145 148.466 237.145C146.316 237.145 144.574 238.887 144.574 241.037C144.574 243.186 146.316 244.929 148.466 244.929Z" fill="#F48C06"/>
<path d="M267.823 291.057H144.574V292.211H267.823V291.057Z" fill="#CCCCCC"/>
<path d="M148.466 283.85C150.615 283.85 152.358 282.107 152.358 279.958C152.358 277.808 150.615 276.066 148.466 276.066C146.316 276.066 144.574 277.808 144.574 279.958C144.574 282.107 146.316 283.85 148.466 283.85Z" fill="#F48C06"/>
<path d="M265.567 335.378H226.617C225.944 335.377 225.299 335.11 224.823 334.634C224.348 334.158 224.08 333.513 224.079 332.841V319.191C224.08 318.518 224.348 317.873 224.823 317.397C225.299 316.921 225.944 316.654 226.617 316.653H265.567C266.24 316.654 266.885 316.921 267.361 317.397C267.836 317.873 268.104 318.518 268.105 319.191V332.841C268.104 333.513 267.836 334.158 267.361 334.634C266.885 335.11 266.24 335.377 265.567 335.378Z" fill="#F48C06"/>
<path d="M161.162 244.929C163.312 244.929 165.054 243.186 165.054 241.037C165.054 238.887 163.312 237.145 161.162 237.145C159.013 237.145 157.27 238.887 157.27 241.037C157.27 243.186 159.013 244.929 161.162 244.929Z" fill="#F48C06"/>
<path d="M173.859 244.929C176.008 244.929 177.751 243.186 177.751 241.037C177.751 238.887 176.008 237.145 173.859 237.145C171.709 237.145 169.967 238.887 169.967 241.037C169.967 243.186 171.709 244.929 173.859 244.929Z" fill="#F48C06"/>
<path d="M161.162 283.85C163.312 283.85 165.054 282.107 165.054 279.958C165.054 277.808 163.312 276.066 161.162 276.066C159.013 276.066 157.27 277.808 157.27 279.958C157.27 282.107 159.013 283.85 161.162 283.85Z" fill="#F48C06"/>
<path d="M173.859 283.85C176.008 283.85 177.751 282.107 177.751 279.958C177.751 277.808 176.008 276.066 173.859 276.066C171.709 276.066 169.967 277.808 169.967 279.958C169.967 282.107 171.709 283.85 173.859 283.85Z" fill="#F48C06"/>
<path d="M418.385 421.481H1.61467C0.722753 421.481 0 421.163 0 420.771C0 420.379 0.722753 420.06 1.61467 420.06H418.385C419.277 420.06 420 420.378 420 420.771C420 421.163 419.277 421.481 418.385 421.481Z" fill="#E6E6E6"/>
<path d="M365.022 264.192L355.222 283.592L325.926 296.912C322.797 302.2 312.854 302.605 312.131 299.187C311.319 295.351 324.205 289.176 324.205 289.176L348.713 272.6L350.857 258.33L365.022 264.192Z" fill="#FFB9B9"/>
<path d="M363.866 394.379L365.673 408.837L355.192 409.56L354.108 394.38L363.866 394.379Z" fill="#FFB9B9"/>
<path d="M362.421 406.668C363.358 405.677 364.222 404.62 365.007 403.505C366.51 401.426 367.842 412.089 367.842 412.089C367.842 412.089 369.289 416.426 368.927 418.595C368.565 420.764 360.253 420.764 358.807 420.404C357.361 420.043 350.132 420.404 350.132 420.404H339.289C329.892 416.067 339.289 413.175 339.289 413.175C342.181 412.813 351.94 403.777 351.94 403.777L354.108 399.802C355.554 399.44 357 404.862 357 404.862L362.421 406.668Z" fill="#090814"/>
<path d="M390.975 394.56L392.783 409.017L382.301 409.74L381.217 394.56H390.975Z" fill="#FFB9B9"/>
<path d="M389.528 406.849C390.465 405.858 391.329 404.801 392.114 403.686C393.616 401.607 394.949 412.27 394.949 412.27C394.949 412.27 396.395 416.246 396.034 418.414C395.672 420.583 387.359 420.583 385.913 420.223C384.467 419.863 377.239 420.584 377.239 420.584H366.396C356.999 416.247 366.396 413.356 366.396 413.356C369.288 412.994 379.046 403.958 379.046 403.958L381.215 399.983C382.661 399.621 384.107 405.043 384.107 405.043L389.528 406.849Z" fill="#090814"/>
<path d="M379.045 301.31C380.491 303.119 379.768 309.262 379.768 309.262C379.768 309.262 382.298 329.141 381.214 330.948C380.129 332.755 381.936 334.2 383.022 336.731C384.108 339.261 385.191 345.405 385.191 345.405C391.335 350.465 390.974 373.597 390.974 373.597L393.142 394.199C392.419 396.367 382.299 396.728 380.854 396.367C379.408 396.006 375.071 363.477 375.071 363.477L365.312 345.043C365.312 345.043 366.035 394.198 366.035 396.367C366.035 398.536 356.276 397.451 354.107 397.451C351.938 397.451 351.938 361.308 351.938 361.308L349.77 351.911L338.204 308.901V303.839L340.012 301.309C340.012 301.309 377.6 299.503 379.045 301.31Z" fill="#090814"/>
<path d="M363.144 219.266C369.332 219.266 374.349 214.249 374.349 208.061C374.349 201.873 369.332 196.856 363.144 196.856C356.956 196.856 351.939 201.873 351.939 208.061C351.939 214.249 356.956 219.266 363.144 219.266Z" fill="#FFB9B9"/>
<path d="M357.542 213.301C359.813 218.359 358.468 225.422 353.925 233.18L372.359 224.506L369.467 221.976L370.19 214.747L357.542 213.301Z" fill="#FFB9B9"/>
<path d="M357.541 224.867C355.127 226.302 353.683 228.939 352.854 231.622C351.319 236.59 350.396 241.726 350.103 246.916L349.228 262.456L338.385 303.66C347.782 311.611 353.202 309.804 365.854 303.298C378.506 296.792 379.95 305.468 379.95 305.468C379.95 305.468 381.034 305.107 379.95 304.023C378.865 302.939 379.95 304.023 381.034 302.938C382.119 301.854 381.034 302.938 380.673 301.854C380.311 300.77 380.673 301.492 381.034 301.131C381.396 300.77 379.589 297.515 379.589 297.515L382.48 270.407L386.097 232.096C381.76 226.674 369.472 221.975 369.472 221.975L358.264 229.927C354.647 231.372 357.541 225.59 357.541 225.59L357.541 224.867Z" fill="#2563EB"/>
<path d="M392.058 255.047L393.503 276.733L375.07 303.117C375.07 309.262 371.817 310.708 371.817 310.708C370.585 308.741 369.498 306.688 368.564 304.563C366.756 300.587 369.649 297.335 369.649 297.335L382.299 270.589L376.877 257.216L392.058 255.047Z" fill="#FFB9B9"/>
<path d="M385.916 232.277C392.06 234.446 393.145 257.939 393.145 257.939C385.916 253.963 377.242 260.469 377.242 260.469C377.242 260.469 375.433 254.325 373.266 246.373C372.611 244.136 372.533 241.77 373.038 239.495C373.544 237.22 374.617 235.11 376.157 233.361C376.157 233.361 379.769 230.109 385.916 232.277Z" fill="#2563EB"/>
<path d="M373.444 211.494C372.018 210.353 370.072 212.427 370.072 212.427L368.931 202.157C368.931 202.157 361.799 203.013 357.234 201.872C352.67 200.731 351.957 206.008 351.957 206.008C351.722 203.878 351.674 201.731 351.814 199.592C352.099 197.025 355.808 194.458 362.369 192.745C368.931 191.032 372.354 198.451 372.354 198.451C376.916 200.731 374.87 212.635 373.444 211.494Z" fill="#090814"/>
</svg>
