<svg width="15" height="24" viewBox="0 0 15 24" fill="none" xmlns="http://www.w3.org/2000/svg">
<path d="M3.30469 22.8438V22.8438C2.14168 22.8437 1.56017 22.8437 1.26283 22.5186C1.10081 22.3414 1.00788 22.1116 1.00118 21.8716C0.988898 21.4312 1.56132 20.8776 2.70616 19.7705C4.75881 17.7855 6.03516 15.0032 6.03516 11.9219C6.03511 8.84083 4.75882 6.05907 2.70635 4.07432C1.56068 2.96645 0.987843 2.41251 1.00022 1.97194C1.00696 1.7321 1.09983 1.50245 1.26171 1.32535C1.55907 1.00003 2.14094 1.00002 3.30469 1V1C9.3365 1 14.2265 5.89009 14.2266 11.9219C14.2266 17.9538 9.33656 22.8438 3.30469 22.8438Z" fill="#0E0E0E"/>
<path d="M6.03516 11.9219L6.28516 11.9219L6.28516 11.9219L6.03516 11.9219ZM14.2266 11.9219L14.4766 11.9219L14.4766 11.9219L14.2266 11.9219ZM2.70635 4.07432L2.88013 3.8946L2.70635 4.07432ZM1.00022 1.97194L0.750318 1.96492L1.00022 1.97194ZM1.26171 1.32535L1.07718 1.15668L1.26171 1.32535ZM1.26283 22.5186L1.44732 22.3499L1.26283 22.5186ZM1.00118 21.8716L0.751279 21.8786L1.00118 21.8716ZM2.70616 19.7705L2.87995 19.9502C4.97928 17.92 6.28516 15.0737 6.28516 11.9219L6.03516 11.9219L5.78516 11.9219C5.78516 14.9326 4.53834 17.6509 2.53237 19.5908L2.70616 19.7705ZM6.03516 11.9219L6.28516 11.9219C6.28511 8.77029 4.97928 5.92449 2.88013 3.8946L2.70635 4.07432L2.53256 4.25403C4.53835 6.19365 5.78511 8.91137 5.78516 11.9219L6.03516 11.9219ZM3.30469 1L3.30469 1.25C9.19842 1.25 13.9765 6.02816 13.9766 11.9219L14.2266 11.9219L14.4766 11.9219C14.4765 5.75202 9.47457 0.75 3.30469 0.750001L3.30469 1ZM14.2266 11.9219L13.9766 11.9219C13.9766 17.8157 9.19849 22.5938 3.30469 22.5938L3.30469 22.8438L3.30469 23.0938C9.47463 23.0938 14.4766 18.0918 14.4766 11.9219L14.2266 11.9219ZM2.70635 4.07432L2.88013 3.8946C2.30345 3.33694 1.88417 2.93112 1.60876 2.61011C1.32319 2.27725 1.24688 2.0944 1.25012 1.97896L1.00022 1.97194L0.750318 1.96492C0.741185 2.29006 0.945104 2.60445 1.22928 2.93568C1.5236 3.27873 1.96358 3.70382 2.53256 4.25403L2.70635 4.07432ZM3.30469 1L3.30468 0.750001C2.72958 0.750011 2.27468 0.74956 1.92755 0.792588C1.57893 0.835801 1.28616 0.928055 1.07718 1.15668L1.26171 1.32535L1.44624 1.49402C1.53462 1.39733 1.68147 1.32692 1.98906 1.28879C2.29814 1.25048 2.71604 1.25001 3.30469 1.25L3.30469 1ZM1.00022 1.97194L1.25012 1.97896C1.25517 1.79911 1.32485 1.62683 1.44624 1.49402L1.26171 1.32535L1.07718 1.15668C0.874819 1.37807 0.75874 1.6651 0.750318 1.96492L1.00022 1.97194ZM3.30469 22.8438L3.30469 22.5938C2.71641 22.5937 2.29878 22.5933 1.98989 22.555C1.6825 22.5169 1.53571 22.4465 1.44732 22.3499L1.26283 22.5186L1.07834 22.6873C1.28729 22.9158 1.57992 23.008 1.92838 23.0512C2.27532 23.0942 2.72995 23.0937 3.30468 23.0938L3.30469 22.8438ZM2.70616 19.7705L2.53237 19.5908C1.9638 20.1406 1.52413 20.5654 1.23 20.9083C0.946006 21.2393 0.742214 21.5536 0.751279 21.8786L1.00118 21.8716L1.25108 21.8646C1.24787 21.7492 1.32414 21.5665 1.60949 21.2338C1.88471 20.913 2.30368 20.5075 2.87995 19.9502L2.70616 19.7705ZM1.26283 22.5186L1.44732 22.3499C1.32582 22.217 1.2561 22.0446 1.25108 21.8646L1.00118 21.8716L0.751279 21.8786C0.759647 22.1786 0.875799 22.4658 1.07834 22.6873L1.26283 22.5186Z" fill="white"/>
</svg>
