<svg width="425" height="399" viewBox="0 0 425 399" fill="none" xmlns="http://www.w3.org/2000/svg">
<g clip-path="url(#clip0_12_68)">
<path d="M255.33 395.025C255.875 395.64 256.361 396.305 256.78 397.012H246.136C244.665 396.33 243.17 395.667 241.651 395.025C241.274 394.866 240.896 394.706 240.512 394.547C239.254 394.024 237.816 393.315 237.955 392.348C238.074 391.533 239.299 390.983 240.486 390.705C245.546 389.512 251.481 391.274 254.508 394.169C254.8 394.448 255.071 394.732 255.33 395.024V395.025Z" fill="#E6E6E6"/>
<path d="M261.755 396.734C261.696 396.801 261.642 396.86 261.589 396.927C261.384 397.172 261.192 397.423 261.02 397.675C260.791 398.004 260.592 398.352 260.424 398.715C260.319 398.361 260.19 398.013 260.04 397.675C259.921 397.389 259.786 397.111 259.636 396.841C258.398 394.747 256.789 392.897 254.887 391.382C252.231 389.136 249.13 387.129 246.302 384.969C245.076 384.036 243.845 382.763 244.692 381.664C245.395 380.749 247.196 380.478 248.773 380.458C254.728 380.358 260.656 382.419 263.829 385.691C265.942 387.864 266.823 390.68 265.293 393.051C264.425 394.383 262.875 395.483 261.756 396.734H261.755Z" fill="#E6E6E6"/>
<path d="M286.204 397.013C286.011 396.86 285.82 396.708 285.619 396.562C284.828 395.979 283.988 395.465 283.109 395.025C280.931 393.931 278.543 393.318 276.108 393.23C273.233 393.172 270.384 393.787 267.788 395.025C267.384 395.211 266.991 395.41 266.622 395.615C265.924 396.002 265.247 396.426 264.595 396.887C264.536 396.927 264.476 396.967 264.416 397.013H286.204Z" fill="#E6E6E6"/>
<path d="M267.644 397.012H264.292C264.391 396.966 264.498 396.926 264.597 396.886C265.186 396.634 265.776 396.39 266.332 396.111C266.558 396.023 266.804 395.999 267.043 396.039C267.282 396.08 267.506 396.185 267.69 396.343C267.735 396.388 267.769 396.442 267.792 396.502C267.814 396.561 267.823 396.625 267.819 396.688C267.814 396.751 267.796 396.813 267.766 396.869C267.736 396.925 267.694 396.974 267.644 397.012Z" fill="#60C352"/>
<path d="M247.978 103.539L169.094 68.6348C168.012 68.1579 166.784 68.1292 165.681 68.555C164.577 68.9808 163.687 69.8264 163.206 70.9068L124.749 157.827C124.272 158.911 124.245 160.139 124.672 161.243C125.099 162.347 125.946 163.236 127.028 163.716L205.911 198.621C206.994 199.098 208.221 199.126 209.325 198.701C210.428 198.275 211.318 197.429 211.8 196.349L250.256 109.428C250.733 108.345 250.761 107.117 250.334 106.013C249.907 104.909 249.059 104.02 247.978 103.539Z" fill="#D6D6E3"/>
<path d="M168.094 70.9138C167.857 70.8084 167.602 70.7507 167.343 70.744C167.085 70.7372 166.827 70.7815 166.585 70.8744C166.343 70.9673 166.122 71.107 165.935 71.2854C165.747 71.4638 165.596 71.6774 165.491 71.9141L127.035 158.835C126.825 159.314 126.814 159.856 127.003 160.344C127.192 160.831 127.566 161.225 128.044 161.438L206.928 196.342C207.164 196.447 207.419 196.505 207.678 196.512C207.937 196.518 208.194 196.474 208.436 196.381C208.678 196.288 208.899 196.149 209.087 195.97C209.274 195.792 209.425 195.578 209.53 195.342L247.987 108.421C248.196 107.942 248.207 107.399 248.018 106.912C247.829 106.424 247.455 106.031 246.978 105.818L168.094 70.9138Z" fill="#F2F2F2"/>
<path d="M185.578 98.3369L168.146 90.6194L168.547 89.7104L185.981 97.428L185.578 98.3369Z" fill="#D3D3D3"/>
<path d="M226.275 123.795L165.391 96.8464L165.791 95.9375L226.677 122.886L226.275 123.795Z" fill="#D3D3D3"/>
<path d="M223.52 130.022L162.635 103.073L163.035 102.164L223.922 129.113L223.52 130.022Z" fill="#D3D3D3"/>
<path d="M164.76 145.391L147.328 137.673L147.728 136.764L165.162 144.482L164.76 145.391Z" fill="#D3D3D3"/>
<path d="M205.457 170.849L144.572 143.9L144.972 142.991L205.859 169.94L205.457 170.849Z" fill="#D3D3D3"/>
<path d="M202.701 177.076L141.816 150.134L142.216 149.225L203.103 176.167L202.701 177.076Z" fill="#D3D3D3"/>
<path d="M175.166 121.861L157.734 114.15L158.134 113.241L175.568 120.952L175.166 121.861Z" fill="#D3D3D3"/>
<path d="M215.87 147.319L154.978 120.377L155.378 119.468L216.271 146.41L215.87 147.319Z" fill="#D3D3D3"/>
<path d="M213.114 153.546L152.222 126.604L152.622 125.695L213.515 152.637L213.114 153.546Z" fill="#D3D3D3"/>
<path d="M425 398.007C425 398.137 424.975 398.267 424.925 398.387C424.875 398.508 424.802 398.618 424.709 398.71C424.617 398.802 424.507 398.876 424.387 398.925C424.266 398.975 424.137 399.001 424.006 399.001H0.99379C0.734262 398.995 0.487384 398.887 0.305955 398.702C0.124526 398.516 0.0229492 398.267 0.0229492 398.007C0.0229492 397.747 0.124526 397.498 0.305955 397.312C0.487384 397.127 0.734262 397.019 0.99379 397.013H424.007C424.137 397.013 424.266 397.039 424.387 397.089C424.508 397.139 424.617 397.212 424.709 397.304C424.802 397.396 424.875 397.506 424.925 397.626C424.975 397.747 425 397.876 425 398.007Z" fill="#F2F2F2"/>
<path d="M105.959 3.59505e-05L98.0906 1.12146L143.882 322.497L151.751 321.375L105.959 3.59505e-05Z" fill="#090814"/>
<path d="M193.762 393.038H64.5964V397.675H193.762V393.038Z" fill="#D6D6E3"/>
<path d="M127.404 243.415L89.0647 397.449L84.5869 396.257L122.926 242.23L127.404 243.415Z" fill="#D6D6E3"/>
<path d="M127.523 249.948C131.181 249.948 134.146 246.982 134.146 243.324C134.146 239.665 131.181 236.699 127.523 236.699C123.864 236.699 120.899 239.665 120.899 243.324C120.899 246.982 123.864 249.948 127.523 249.948Z" fill="#090814"/>
<path d="M329.616 34.0949C330.374 35.9341 330.666 37.932 330.466 39.9112L339.312 58.5927L329.993 62.7596L322.019 43.3626C320.521 42.0696 319.369 40.4234 318.667 38.5731C316.846 33.969 317.817 29.2326 320.839 28.0018C323.862 26.771 327.788 29.4988 329.61 34.1029L329.616 34.0949Z" fill="#ED9DA0"/>
<path d="M363.025 157.938L316.256 55.094L334.704 42.9716C334.704 42.9716 374.546 142.147 375.473 146.805C376.401 151.462 363.027 157.934 363.027 157.934L363.025 157.938Z" fill="#F48C06"/>
<path d="M373.274 93.9805H357.881V118.405L374.845 112.827L373.274 93.9805Z" fill="#ED9DA0"/>
<path d="M359.98 100.737C369.316 100.737 376.884 93.1682 376.884 83.8315C376.884 74.4948 369.316 66.9259 359.98 66.9259C350.645 66.9259 343.076 74.4948 343.076 83.8315C343.076 93.1682 350.645 100.737 359.98 100.737Z" fill="#ED9DA0"/>
<path d="M364.286 85.1436C372.944 81.4782 371.943 94.6302 371.943 94.6302L373.592 97.7644L380.869 83.9255C385.248 70.5042 369.94 62.793 369.94 62.793C364.952 56.9172 354.908 63.7933 354.908 63.7933C340.435 60.5805 347.423 72.7826 347.423 72.7826C347.423 72.7826 352.358 72.8953 352.358 76.89C352.358 80.8848 357.736 80.6086 357.736 80.6086L361.949 87.9883L364.281 85.1596V85.1463L364.286 85.1436Z" fill="#090814"/>
<path d="M379.938 366.321H366.068V386.003H379.938V366.321Z" fill="#ED9DA0"/>
<path d="M367.591 397.278C367.524 397.291 358.635 397.921 352.548 397.921C351.091 397.921 349.792 397.888 348.812 397.795C345.123 397.457 341.612 394.734 339.844 393.144C339.457 392.796 339.188 392.336 339.073 391.828C338.959 391.32 339.006 390.79 339.206 390.309C339.352 389.964 339.574 389.655 339.854 389.406C340.135 389.157 340.468 388.975 340.829 388.872L350.566 386.089L366.33 375.45L366.509 375.769C367.371 377.294 368.085 378.898 368.642 380.559C368.746 380.848 368.786 381.157 368.76 381.463C368.734 381.769 368.642 382.067 368.49 382.334C368.31 382.602 368.057 382.814 367.761 382.943C368.045 383.241 368.94 383.851 371.695 384.288C375.716 384.931 376.564 380.764 376.597 380.585L376.623 380.446L376.742 380.366C378.654 379.134 379.836 378.57 380.24 378.69C380.498 378.763 380.922 378.889 382.061 390.243C382.617 392.009 382.744 393.883 382.433 395.708C381.837 398.431 369.967 397.49 367.595 397.278H367.591Z" fill="#090814"/>
<path d="M342.473 233.771L361.855 370.64H382.415L383.265 237.958C390.312 215.924 384.735 194.779 384.735 194.779L348.35 196.638L342.475 233.771L342.473 233.771Z" fill="#090814"/>
<path d="M354.489 108.136L348.375 134.184L340.685 196.647L384.74 194.788C384.74 194.788 390.026 163.07 393.007 146.032C395.988 128.993 374.46 97.5402 374.46 97.5402L354.488 108.14L354.489 108.136Z" fill="#F48C06"/>
<path d="M375.384 371.108L363.372 364.172L353.533 381.217L365.545 388.152L375.384 371.108Z" fill="#ED9DA0"/>
<path d="M357.721 397.278C357.655 397.291 348.766 397.921 342.679 397.921C341.222 397.921 339.923 397.888 338.943 397.795C335.253 397.457 331.743 394.734 329.974 393.144C329.587 392.796 329.318 392.336 329.204 391.828C329.09 391.32 329.136 390.79 329.337 390.309C329.482 389.964 329.704 389.655 329.985 389.406C330.266 389.157 330.599 388.975 330.959 388.872L340.696 386.089L356.461 375.45L356.64 375.769C357.502 377.294 358.216 378.898 358.773 380.559C358.877 380.848 358.917 381.157 358.891 381.463C358.865 381.769 358.772 382.067 358.62 382.334C358.441 382.602 358.188 382.814 357.892 382.943C358.176 383.241 359.071 383.851 361.826 384.288C365.847 384.931 366.695 380.764 366.728 380.585L366.754 380.446L366.873 380.366C368.785 379.134 369.967 378.57 370.37 378.69C370.629 378.763 371.052 378.889 372.192 390.243C372.748 392.009 372.875 393.883 372.564 395.708C371.968 398.431 360.098 397.49 357.726 397.278H357.719H357.721Z" fill="#090814"/>
<path d="M343.312 233.277L359.526 370.638H376.726L383.853 237.479C389.749 215.366 385.083 194.145 385.083 194.145L348.227 196.013L343.312 233.277Z" fill="#090814"/>
<path d="M323.754 231.287C324.378 229.399 325.459 227.695 326.9 226.326L332.378 206.393L342.155 209.314L335.551 229.221C335.843 231.178 335.642 233.177 334.966 235.037C333.344 239.721 329.521 242.669 326.428 241.635C323.335 240.602 322.136 235.965 323.759 231.288L323.754 231.287Z" fill="#ED9DA0"/>
<path d="M379.03 115.775L347.507 223.931L325.681 221.089C325.681 221.089 360.059 120.211 362.385 116.084C364.711 111.958 379.037 115.765 379.037 115.765L379.03 115.775Z" fill="#F48C06"/>
<path d="M319.746 30.8555H205.16C203.588 30.857 202.08 31.482 200.968 32.5933C199.855 33.7047 199.229 35.2119 199.226 36.7844V163.048C199.228 164.621 199.855 166.128 200.967 167.24C202.08 168.352 203.588 168.977 205.16 168.978H319.746C321.319 168.977 322.827 168.352 323.939 167.24C325.051 166.129 325.678 164.622 325.681 163.049V36.7844C325.678 35.2119 325.051 33.7047 323.939 32.5933C322.827 31.482 321.319 30.857 319.746 30.8555Z" fill="#D6D6E3"/>
<path d="M205.161 34.1676C204.466 34.1677 203.8 34.4433 203.308 34.9338C202.817 35.4243 202.54 36.0898 202.538 36.7844V163.047C202.54 163.742 202.817 164.407 203.308 164.898C203.8 165.388 204.466 165.664 205.161 165.664H319.747C320.441 165.664 321.107 165.388 321.599 164.898C322.091 164.407 322.368 163.742 322.37 163.047V36.7844C322.368 36.0898 322.091 35.4243 321.599 34.9338C321.107 34.4433 320.441 34.1677 319.747 34.1676H205.161Z" fill="#F2F2F2"/>
<path d="M241.149 57.9232H215.819V56.9293H241.149V57.9232Z" fill="#090814"/>
<path d="M304.267 66.9657H215.819V65.9718H304.267V66.9657Z" fill="#090814"/>
<path d="M304.267 76.015H215.819V75.0211H304.267V76.015Z" fill="#090814"/>
<path d="M241.149 126.276H215.819V125.282H241.149V126.276Z" fill="#090814"/>
<path d="M304.267 135.324H215.819V134.33H304.267V135.324Z" fill="#090814"/>
<path d="M304.267 144.374H215.819V143.38H304.267V144.374Z" fill="#090814"/>
<path d="M241.149 92.0994H215.819V91.1055H241.149V92.0994Z" fill="#090814"/>
<path d="M304.267 101.149H215.819V100.155H304.267V101.149Z" fill="#090814"/>
<path d="M304.267 110.191H215.819V109.197H304.267V110.191Z" fill="#090814"/>
<path opacity="0.5" d="M371.228 149.468L356.364 202.702" stroke="black" stroke-miterlimit="10"/>
<path d="M202.373 45.251C210.787 45.251 217.608 38.4294 217.608 30.0146C217.608 21.5997 210.787 14.7781 202.373 14.7781C193.959 14.7781 187.138 21.5997 187.138 30.0146C187.138 38.4294 193.959 45.251 202.373 45.251Z" fill="white"/>
<path fill-rule="evenodd" clip-rule="evenodd" d="M202.732 13.6381C199.265 13.6381 195.876 14.6662 192.993 16.5924C190.111 18.5187 187.864 21.2566 186.537 24.4598C185.211 27.663 184.864 31.1878 185.54 34.5883C186.216 37.9889 187.886 41.1125 190.337 43.5641C192.789 46.0158 195.912 47.6854 199.312 48.3618C202.712 49.0382 206.237 48.6911 209.44 47.3642C212.642 46.0374 215.38 43.7905 217.306 40.9077C219.232 38.0248 220.26 34.6355 220.26 31.1684C220.261 28.8661 219.808 26.5864 218.927 24.4593C218.046 22.3322 216.755 20.3996 215.127 18.7716C213.499 17.1437 211.567 15.8525 209.44 14.9716C207.313 14.0908 205.034 13.6376 202.732 13.6381ZM209.764 25.973C209.958 25.6864 210.031 25.3354 209.969 24.9954C209.906 24.6553 209.713 24.3533 209.431 24.154C209.148 23.9547 208.799 23.874 208.458 23.9292C208.116 23.9845 207.81 24.1712 207.605 24.4495L200.14 35.0617L197.059 31.9275C196.808 31.7003 196.48 31.5774 196.142 31.584C195.804 31.5906 195.481 31.7261 195.239 31.9629C194.997 32.1997 194.855 32.5199 194.841 32.8581C194.827 33.1963 194.943 33.5269 195.165 33.7825L199.358 38.0487C199.495 38.1865 199.659 38.2927 199.841 38.36C200.023 38.4273 200.217 38.454 200.41 38.4382C200.603 38.4224 200.791 38.3645 200.959 38.2686C201.128 38.1727 201.273 38.0411 201.385 37.883L209.764 25.973Z" fill="#2563EB"/>
</g>
<defs>
<clipPath id="clip0_12_68">
<rect width="425" height="399" fill="white"/>
</clipPath>
</defs>
</svg>
